<svg width="320" height="169" viewBox="0 0 320 169" fill="none" xmlns="http://www.w3.org/2000/svg">
<g clip-path="url(#clip0)">
<path d="M279.852 148.074C271.497 148.001 263.157 147.389 254.881 146.244C254.59 146.203 254.3 146.16 254.009 146.119L254.446 67.9395C254.735 67.71 255.027 67.4841 255.323 67.2652C256.301 66.5353 257.307 65.8512 258.348 65.2232C263.361 62.2048 269.232 60.8229 273.282 62.2077L273.345 62.2325C274.231 62.5314 275.05 63.0024 275.755 63.6185C279.311 66.7757 278.718 73.1593 275.848 78.9523C281.539 73.7564 288.722 69.6191 295.132 69.3047C301.386 68.9965 305.853 72.2638 309.649 75.8075C309.774 75.9238 309.896 76.0401 310.018 76.1563C310.081 76.2128 310.14 76.2726 310.203 76.3289C313.096 79.0938 315.948 82.3171 315.603 86.9828C315.224 92.0998 310.935 97.7731 305.937 101.751C300.942 105.729 295.268 108.372 289.73 111.051C284.196 113.734 278.521 116.637 273.791 120.942C281.172 115.111 289.569 110.41 297.737 108.673C305.904 106.937 313.748 108.465 317.595 113.662C318.727 115.239 319.464 117.065 319.745 118.986C319.782 119.21 319.812 119.437 319.839 119.669C320.387 124.479 318.722 130.223 314.742 135.11C310.359 140.492 303.863 144.223 297.696 146.08C291.528 147.936 285.591 148.134 279.852 148.074Z" fill="#F2F2F2"/>
<path d="M254.284 96.9243L254.292 95.4294C254.589 94.9547 254.883 94.4778 255.173 93.9986C255.36 93.702 255.541 93.4019 255.725 93.1017C258.755 88.143 261.663 83.1532 264.446 78.1324C267.232 73.1162 269.889 68.0748 272.419 63.0081C272.477 62.8738 272.581 62.7643 272.712 62.6985C272.843 62.6327 272.993 62.6148 273.135 62.648C273.154 62.6534 273.172 62.6618 273.188 62.6729C273.321 62.7435 273.376 62.9015 273.262 63.132C272.951 63.7535 272.639 64.3785 272.32 64.9999C269.747 70.0804 267.047 75.1391 264.217 80.176C261.39 85.2094 258.437 90.2141 255.359 95.1902C255.295 95.2948 255.228 95.3996 255.165 95.5042C254.871 95.9787 254.578 96.4498 254.284 96.9243Z" fill="white"/>
<path d="M254.176 116.2L254.182 115.275C254.474 115.067 254.766 114.862 255.058 114.654C261.932 109.755 268.807 104.857 275.681 99.9606C286.936 91.9419 298.19 83.9255 309.445 75.9115C309.506 75.864 309.575 75.8287 309.649 75.8076C309.898 75.739 310.044 75.9219 310.018 76.1564C310.004 76.2552 309.969 76.3499 309.915 76.4341C309.862 76.5183 309.791 76.5902 309.707 76.6448C303.396 81.1405 297.086 85.6352 290.779 90.1286C279.581 98.1056 268.384 106.082 257.188 114.056C256.477 114.563 255.763 115.071 255.052 115.578C254.76 115.786 254.468 115.995 254.176 116.2Z" fill="white"/>
<path d="M259.549 136.794C257.99 136.747 256.455 136.644 254.935 136.509C254.645 136.483 254.354 136.457 254.063 136.431L254.069 135.461C254.359 135.491 254.65 135.52 254.941 135.547C257.137 135.751 259.358 135.897 261.639 135.917C267.963 135.942 274.273 135.327 280.473 134.079C287.149 132.752 293.696 130.847 300.041 128.386C306.733 125.802 313.207 122.687 319.401 119.071C319.502 119.003 319.624 118.973 319.745 118.986C320.021 119.026 320.103 119.394 319.839 119.669C319.787 119.723 319.728 119.77 319.663 119.808C318.893 120.255 318.121 120.694 317.346 121.126C311.118 124.608 304.621 127.59 297.919 130.041C291.553 132.375 284.996 134.151 278.322 135.348C272.13 136.469 265.839 136.954 259.549 136.794V136.794Z" fill="white"/>
<path d="M251.841 3.97986e-09H39.1421C38.332 0.000736181 37.5552 0.322661 36.9824 0.895108C36.4095 1.46756 36.0874 2.24375 36.0866 3.0533V147.077C36.0874 147.886 36.4095 148.662 36.9824 149.235C37.5552 149.807 38.332 150.129 39.1421 150.13H251.841C252.283 150.13 252.72 150.034 253.121 149.849C253.522 149.664 253.878 149.394 254.165 149.058C254.189 149.032 254.211 149.004 254.231 148.974C254.414 148.751 254.561 148.502 254.669 148.235C254.823 147.868 254.902 147.474 254.9 147.076V3.05332C254.9 2.2432 254.577 1.46656 254.003 0.89404C253.43 0.321522 252.652 -4.13068e-05 251.841 3.97986e-09V3.97986e-09ZM254.028 147.077C254.028 147.502 253.903 147.919 253.667 148.274C253.458 148.586 253.173 148.842 252.84 149.016C252.531 149.176 252.189 149.259 251.841 149.258H39.1421C38.5634 149.257 38.0085 149.027 37.5992 148.618C37.19 148.209 36.9598 147.655 36.9591 147.077V3.05332C36.9598 2.47498 37.19 1.92053 37.5992 1.51158C38.0085 1.10263 38.5634 0.872579 39.1421 0.871878H251.841C252.421 0.871804 252.976 1.10149 253.386 1.51051C253.796 1.91952 254.027 2.47441 254.028 3.05332V147.077Z" fill="#3F3D56"/>
<path d="M254.462 12.2374H36.5221V13.1103H254.462V12.2374Z" fill="#3F3D56"/>
<path d="M43.9469 9.16499C45.3942 9.16499 46.5674 7.99262 46.5674 6.54642C46.5674 5.10023 45.3942 3.92786 43.9469 3.92786C42.4996 3.92786 41.3264 5.10023 41.3264 6.54642C41.3264 7.99262 42.4996 9.16499 43.9469 9.16499Z" fill="#3F3D56"/>
<path d="M51.4809 9.16499C52.9282 9.16499 54.1014 7.99262 54.1014 6.54642C54.1014 5.10023 52.9282 3.92786 51.4809 3.92786C50.0336 3.92786 48.8604 5.10023 48.8604 6.54642C48.8604 7.99262 50.0336 9.16499 51.4809 9.16499Z" fill="#3F3D56"/>
<path d="M59.0149 9.16499C60.4622 9.16499 61.6354 7.99262 61.6354 6.54642C61.6354 5.10023 60.4622 3.92786 59.0149 3.92786C57.5676 3.92786 56.3944 5.10023 56.3944 6.54642C56.3944 7.99262 57.5676 9.16499 59.0149 9.16499Z" fill="#3F3D56"/>
<path d="M200.191 32.442H90.8626C89.6544 32.442 88.4958 31.9624 87.6415 31.1088C86.7872 30.2551 86.3073 29.0973 86.3073 27.89C86.3073 26.6828 86.7872 25.525 87.6415 24.6713C88.4958 23.8177 89.6544 23.3381 90.8626 23.3381H200.191C201.399 23.3381 202.558 23.8177 203.412 24.6713C204.266 25.525 204.746 26.6828 204.746 27.89C204.746 29.0973 204.266 30.2551 203.412 31.1088C202.558 31.9624 201.399 32.442 200.191 32.442ZM90.8626 24.0384C89.8403 24.0384 88.8599 24.4442 88.137 25.1665C87.4142 25.8888 87.0081 26.8685 87.0081 27.89C87.0081 28.9116 87.4142 29.8912 88.137 30.6136C88.8599 31.3359 89.8403 31.7417 90.8626 31.7417H200.191C201.213 31.7417 202.193 31.3359 202.916 30.6136C203.639 29.8912 204.045 28.9116 204.045 27.89C204.045 26.8685 203.639 25.8888 202.916 25.1665C202.193 24.4442 201.213 24.0384 200.191 24.0384H90.8626Z" fill="#3F3D56"/>
<path d="M91.7759 60.2788H81.9644C81.2209 60.2788 80.5079 59.9837 79.9822 59.4584C79.4565 58.933 79.1611 58.2205 79.1611 57.4776C79.1611 56.7347 79.4565 56.0222 79.9822 55.4969C80.5079 54.9716 81.2209 54.6764 81.9644 54.6764H91.7759C92.5194 54.6764 93.2324 54.9716 93.7581 55.4969C94.2839 56.0222 94.5792 56.7347 94.5792 57.4776C94.5792 58.2205 94.2839 58.933 93.7581 59.4584C93.2324 59.9837 92.5194 60.2788 91.7759 60.2788Z" fill="#CCCCCC"/>
<path d="M103.339 69.7328H81.9644C81.2209 69.7328 80.5079 69.4377 79.9822 68.9124C79.4565 68.3871 79.1611 67.6746 79.1611 66.9316C79.1611 66.1887 79.4565 65.4762 79.9822 64.9509C80.5079 64.4256 81.2209 64.1304 81.9644 64.1304H103.339C104.083 64.1304 104.796 64.4256 105.322 64.9509C105.847 65.4762 106.143 66.1887 106.143 66.9316C106.143 67.6746 105.847 68.3871 105.322 68.9124C104.796 69.4377 104.083 69.7328 103.339 69.7328Z" fill="#CCCCCC"/>
<path d="M93.528 101.596H83.7165C82.973 101.596 82.2599 101.301 81.7342 100.776C81.2085 100.251 80.9132 99.5381 80.9132 98.7952C80.9132 98.0523 81.2085 97.3398 81.7342 96.8145C82.2599 96.2891 82.973 95.994 83.7165 95.994H93.528C94.2714 95.994 94.9845 96.2891 95.5102 96.8145C96.0359 97.3398 96.3312 98.0523 96.3312 98.7952C96.3312 99.5381 96.0359 100.251 95.5102 100.776C94.9845 101.301 94.2714 101.596 93.528 101.596Z" fill="#CCCCCC"/>
<path d="M105.092 111.05H83.7165C82.973 111.05 82.2599 110.755 81.7342 110.23C81.2085 109.705 80.9132 108.992 80.9132 108.249C80.9132 107.506 81.2085 106.794 81.7342 106.268C82.2599 105.743 82.973 105.448 83.7165 105.448H105.092C105.835 105.448 106.548 105.743 107.074 106.268C107.599 106.794 107.895 107.506 107.895 108.249C107.895 108.992 107.599 109.705 107.074 110.23C106.548 110.755 105.835 111.05 105.092 111.05Z" fill="#CCCCCC"/>
<path d="M158.004 100.546H148.192C147.449 100.546 146.736 100.251 146.21 99.7255C145.684 99.2001 145.389 98.4876 145.389 97.7447C145.389 97.0018 145.684 96.2893 146.21 95.764C146.736 95.2387 147.449 94.9435 148.192 94.9435H158.004C158.747 94.9435 159.46 95.2387 159.986 95.764C160.511 96.2893 160.807 97.0018 160.807 97.7447C160.807 98.4876 160.511 99.2001 159.986 99.7255C159.46 100.251 158.747 100.546 158.004 100.546Z" fill="#CCCCCC"/>
<path d="M169.567 110H148.192C147.449 110 146.736 109.705 146.21 109.179C145.684 108.654 145.389 107.942 145.389 107.199C145.389 106.456 145.684 105.743 146.21 105.218C146.736 104.693 147.449 104.398 148.192 104.398H169.567C170.311 104.398 171.024 104.693 171.549 105.218C172.075 105.743 172.37 106.456 172.37 107.199C172.37 107.942 172.075 108.654 171.549 109.179C171.024 109.705 170.311 110 169.567 110Z" fill="#CCCCCC"/>
<path d="M156.952 62.0295H147.141C146.397 62.0295 145.684 61.7344 145.159 61.2091C144.633 60.6838 144.338 59.9713 144.338 59.2284C144.338 58.4854 144.633 57.7729 145.159 57.2476C145.684 56.7223 146.397 56.4272 147.141 56.4272H156.952C157.696 56.4272 158.409 56.7223 158.934 57.2476C159.46 57.7729 159.756 58.4854 159.756 59.2284C159.756 59.9713 159.46 60.6838 158.934 61.2091C158.409 61.7344 157.696 62.0295 156.952 62.0295Z" fill="#CCCCCC"/>
<path d="M168.516 71.4836H147.141C146.397 71.4836 145.684 71.1884 145.159 70.6631C144.633 70.1378 144.338 69.4253 144.338 68.6824C144.338 67.9395 144.633 67.227 145.159 66.7016C145.684 66.1763 146.397 65.8812 147.141 65.8812H168.516C169.259 65.8812 169.972 66.1763 170.498 66.7016C171.024 67.227 171.319 67.9395 171.319 68.6824C171.319 69.4253 171.024 70.1378 170.498 70.6631C169.972 71.1884 169.259 71.4836 168.516 71.4836Z" fill="#CCCCCC"/>
<path d="M222.479 59.9287H212.668C211.924 59.9287 211.211 59.6335 210.685 59.1082C210.16 58.5829 209.864 57.8704 209.864 57.1275C209.864 56.3845 210.16 55.6721 210.685 55.1467C211.211 54.6214 211.924 54.3263 212.668 54.3263H222.479C223.223 54.3263 223.936 54.6214 224.461 55.1467C224.987 55.6721 225.282 56.3845 225.282 57.1275C225.282 57.8704 224.987 58.5829 224.461 59.1082C223.936 59.6335 223.223 59.9287 222.479 59.9287Z" fill="#CCCCCC"/>
<path d="M234.043 69.3827H212.668C211.924 69.3827 211.211 69.0876 210.685 68.5622C210.16 68.0369 209.864 67.3244 209.864 66.5815C209.864 65.8386 210.16 65.1261 210.685 64.6008C211.211 64.0754 211.924 63.7803 212.668 63.7803H234.043C234.786 63.7803 235.499 64.0754 236.025 64.6008C236.551 65.1261 236.846 65.8386 236.846 66.5815C236.846 67.3244 236.551 68.0369 236.025 68.5622C235.499 69.0876 234.786 69.3827 234.043 69.3827Z" fill="#CCCCCC"/>
<path d="M64.6535 72.7091C70.4593 72.7091 75.1658 68.0061 75.1658 62.2046C75.1658 56.4032 70.4593 51.7001 64.6535 51.7001C58.8477 51.7001 54.1412 56.4032 54.1412 62.2046C54.1412 68.0061 58.8477 72.7091 64.6535 72.7091Z" fill="#3598DB"/>
<path d="M69.5593 66.9317H59.7478C59.4691 66.9314 59.2019 66.8206 59.0048 66.6237C58.8077 66.4268 58.6969 66.1597 58.6966 65.8812V58.5281C58.6969 58.2496 58.8077 57.9826 59.0048 57.7857C59.2019 57.5887 59.4691 57.478 59.7478 57.4777H62.5099C62.6895 57.477 62.8663 57.5226 63.0231 57.6102C63.18 57.6977 63.3116 57.8242 63.4052 57.9774L64.1755 59.2284H69.5593C69.838 59.2287 70.1052 59.3395 70.3023 59.5364C70.4994 59.7333 70.6102 60.0004 70.6105 60.2789V65.8812C70.6102 66.1597 70.4994 66.4268 70.3023 66.6237C70.1052 66.8206 69.838 66.9314 69.5593 66.9317V66.9317ZM59.7478 58.178C59.6549 58.1781 59.5659 58.215 59.5002 58.2807C59.4345 58.3463 59.3975 58.4353 59.3974 58.5281V65.8812C59.3975 65.9741 59.4345 66.0631 59.5002 66.1287C59.5659 66.1943 59.6549 66.2313 59.7478 66.2314H69.5593C69.6522 66.2313 69.7413 66.1943 69.807 66.1287C69.8726 66.0631 69.9096 65.9741 69.9097 65.8812V60.2789C69.9096 60.186 69.8726 60.097 69.807 60.0314C69.7413 59.9658 69.6522 59.9288 69.5593 59.9287H63.784L62.8084 58.3445C62.7772 58.2934 62.7333 58.2513 62.681 58.2221C62.6287 58.1929 62.5698 58.1777 62.5099 58.178H59.7478Z" fill="white"/>
<path d="M129.129 74.4598C134.935 74.4598 139.641 69.7568 139.641 63.9554C139.641 58.1539 134.935 53.4509 129.129 53.4509C123.323 53.4509 118.617 58.1539 118.617 63.9554C118.617 69.7568 123.323 74.4598 129.129 74.4598Z" fill="#3598DB"/>
<path d="M133.684 70.6083H124.574C124.295 70.608 124.028 70.4972 123.831 70.3002C123.634 70.1033 123.523 69.8363 123.523 69.5578V58.353C123.523 58.0745 123.634 57.8075 123.831 57.6106C124.028 57.4137 124.295 57.3029 124.574 57.3026H131.175C131.415 57.3028 131.647 57.3845 131.834 57.5343L134.343 59.549C134.466 59.6471 134.565 59.7717 134.633 59.9135C134.701 60.0553 134.736 60.2106 134.736 60.3678V69.5578C134.735 69.8363 134.625 70.1033 134.427 70.3002C134.23 70.4972 133.963 70.608 133.684 70.6083V70.6083ZM124.574 58.0029C124.481 58.003 124.392 58.0399 124.326 58.1056C124.26 58.1712 124.224 58.2602 124.223 58.353V69.5578C124.224 69.6506 124.26 69.7396 124.326 69.8053C124.392 69.8709 124.481 69.9078 124.574 69.908H133.684C133.777 69.9078 133.866 69.8709 133.932 69.8053C133.998 69.7396 134.035 69.6506 134.035 69.5578V60.3678C134.035 60.3154 134.023 60.2636 134.001 60.2164C133.978 60.1691 133.945 60.1276 133.904 60.0949L131.395 58.08C131.332 58.0302 131.255 58.003 131.175 58.0029H124.574Z" fill="white"/>
<path d="M131.932 62.2047H126.326C126.233 62.2047 126.144 62.1678 126.078 62.1021C126.012 62.0365 125.975 61.9474 125.975 61.8545C125.975 61.7617 126.012 61.6726 126.078 61.6069C126.144 61.5413 126.233 61.5044 126.326 61.5044H131.932C132.025 61.5044 132.114 61.5413 132.18 61.6069C132.246 61.6726 132.283 61.7617 132.283 61.8545C132.283 61.9474 132.246 62.0365 132.18 62.1021C132.114 62.1678 132.025 62.2047 131.932 62.2047Z" fill="white"/>
<path d="M131.932 64.3056H126.326C126.233 64.3056 126.144 64.2687 126.078 64.203C126.012 64.1373 125.975 64.0483 125.975 63.9554C125.975 63.8626 126.012 63.7735 126.078 63.7078C126.144 63.6422 126.233 63.6053 126.326 63.6053H131.932C132.025 63.6053 132.114 63.6422 132.18 63.7078C132.246 63.7735 132.283 63.8626 132.283 63.9554C132.283 64.0483 132.246 64.1373 132.18 64.203C132.114 64.2687 132.025 64.3056 131.932 64.3056Z" fill="white"/>
<path d="M131.932 66.4065H126.326C126.233 66.4065 126.144 66.3696 126.078 66.3039C126.012 66.2382 125.975 66.1492 125.975 66.0563C125.975 65.9635 126.012 65.8744 126.078 65.8087C126.144 65.7431 126.233 65.7062 126.326 65.7062H131.932C132.025 65.7062 132.114 65.7431 132.18 65.8087C132.246 65.8744 132.283 65.9635 132.283 66.0563C132.283 66.1492 132.246 66.2382 132.18 66.3039C132.114 66.3696 132.025 66.4065 131.932 66.4065Z" fill="white"/>
<path d="M193.955 72.3589C199.761 72.3589 204.467 67.6559 204.467 61.8545C204.467 56.053 199.761 51.35 193.955 51.35C188.149 51.35 183.443 56.053 183.443 61.8545C183.443 67.6559 188.149 72.3589 193.955 72.3589Z" fill="#3598DB"/>
<path d="M198.861 65.7062H189.049C188.77 65.7059 188.503 65.5951 188.306 65.3982C188.109 65.2012 187.998 64.9342 187.998 64.6557V59.0533C187.998 58.7748 188.109 58.5078 188.306 58.3109C188.503 58.114 188.77 58.0032 189.049 58.0029H198.861C199.139 58.0032 199.407 58.114 199.604 58.3109C199.801 58.5078 199.912 58.7748 199.912 59.0533V64.6557C199.912 64.9342 199.801 65.2012 199.604 65.3982C199.407 65.5951 199.139 65.7059 198.861 65.7062V65.7062ZM189.049 58.7032C188.956 58.7033 188.867 58.7402 188.802 58.8059C188.736 58.8715 188.699 58.9605 188.699 59.0533V64.6557C188.699 64.7486 188.736 64.8376 188.802 64.9032C188.867 64.9689 188.956 65.0058 189.049 65.0059H198.861C198.954 65.0058 199.043 64.9689 199.108 64.9032C199.174 64.8376 199.211 64.7486 199.211 64.6557V59.0533C199.211 58.9605 199.174 58.8715 199.108 58.8059C199.043 58.7402 198.954 58.7033 198.861 58.7032H189.049Z" fill="white"/>
<path d="M193.955 62.7783C193.758 62.7786 193.565 62.7237 193.398 62.6198L188.163 59.3503C188.084 59.301 188.028 59.2225 188.007 59.1321C187.987 59.0417 188.003 58.9467 188.052 58.868C188.101 58.7894 188.179 58.7334 188.27 58.7125C188.36 58.6916 188.455 58.7073 188.534 58.7564L193.769 62.0258C193.825 62.0604 193.89 62.0787 193.955 62.0787C194.021 62.0787 194.085 62.0604 194.141 62.0258L199.376 58.7564C199.455 58.7073 199.55 58.6916 199.64 58.7125C199.73 58.7334 199.809 58.7894 199.858 58.868C199.907 58.9467 199.923 59.0417 199.903 59.1321C199.882 59.2225 199.826 59.301 199.747 59.3503L194.512 62.6198C194.345 62.7237 194.152 62.7786 193.955 62.7783V62.7783Z" fill="white"/>
<path d="M64.6535 114.027C70.4593 114.027 75.1658 109.324 75.1658 103.522C75.1658 97.7207 70.4593 93.0177 64.6535 93.0177C58.8477 93.0177 54.1412 97.7207 54.1412 103.522C54.1412 109.324 58.8477 114.027 64.6535 114.027Z" fill="#3598DB"/>
<path d="M69.5593 107.374H59.7478C59.4691 107.374 59.2019 107.263 59.0048 107.066C58.8077 106.869 58.6969 106.602 58.6966 106.323V100.721C58.6969 100.443 58.8077 100.176 59.0048 99.9786C59.2019 99.7817 59.4691 99.6709 59.7478 99.6706H69.5593C69.838 99.6709 70.1052 99.7817 70.3023 99.9786C70.4994 100.176 70.6102 100.443 70.6105 100.721V106.323C70.6102 106.602 70.4994 106.869 70.3023 107.066C70.1052 107.263 69.838 107.374 69.5593 107.374ZM59.7478 100.371C59.6549 100.371 59.5658 100.408 59.5001 100.474C59.4344 100.539 59.3975 100.628 59.3974 100.721V106.323C59.3975 106.416 59.4344 106.505 59.5001 106.571C59.5658 106.637 59.6549 106.673 59.7478 106.674H69.5593C69.6522 106.673 69.7413 106.637 69.807 106.571C69.8727 106.505 69.9096 106.416 69.9097 106.323V100.721C69.9096 100.628 69.8727 100.539 69.807 100.474C69.7413 100.408 69.6522 100.371 69.5593 100.371H59.7478Z" fill="white"/>
<path d="M68.0042 107.374H60.9525C60.8295 107.374 60.7086 107.342 60.602 107.28C60.4955 107.219 60.407 107.13 60.3455 107.024C60.284 106.917 60.2516 106.797 60.2516 106.674C60.2516 106.551 60.2841 106.43 60.3456 106.323L62.4697 102.647C62.5312 102.54 62.6197 102.452 62.7262 102.391C62.8327 102.329 62.9536 102.297 63.0766 102.297C63.1997 102.297 63.3205 102.329 63.4271 102.391C63.5336 102.452 63.6221 102.54 63.6836 102.647L65.0555 105.021L65.8502 103.646C65.9117 103.539 66.0002 103.451 66.1068 103.389C66.2133 103.328 66.3342 103.296 66.4572 103.296C66.5802 103.296 66.7011 103.328 66.8076 103.389C66.9142 103.451 67.0026 103.539 67.0642 103.646L68.6112 106.323C68.6727 106.43 68.7051 106.551 68.7051 106.674C68.7051 106.797 68.6727 106.917 68.6112 107.024C68.5497 107.13 68.4612 107.219 68.3546 107.28C68.2481 107.342 68.1272 107.374 68.0042 107.374H68.0042ZM68.0042 106.674L66.4571 103.996L65.359 105.897C65.3283 105.95 65.284 105.994 65.2307 106.025C65.1774 106.056 65.117 106.072 65.0555 106.072V106.072C64.994 106.072 64.9335 106.056 64.8802 106.025C64.827 105.994 64.7827 105.95 64.752 105.897L63.0767 102.997L60.9525 106.674H68.0042Z" fill="white"/>
<path d="M68.508 102.472C68.8951 102.472 69.2089 102.158 69.2089 101.771C69.2089 101.385 68.8951 101.071 68.508 101.071C68.121 101.071 67.8072 101.385 67.8072 101.771C67.8072 102.158 68.121 102.472 68.508 102.472Z" fill="white"/>
<path d="M129.83 112.976C135.636 112.976 140.342 108.273 140.342 102.472C140.342 96.6703 135.636 91.9673 129.83 91.9673C124.024 91.9673 119.318 96.6703 119.318 102.472C119.318 108.273 124.024 112.976 129.83 112.976Z" fill="#3598DB"/>
<path d="M129.83 102.647C129.206 102.647 128.596 102.462 128.078 102.116C127.559 101.769 127.155 101.277 126.916 100.701C126.678 100.126 126.615 99.492 126.737 98.8807C126.859 98.2694 127.159 97.7079 127.6 97.2672C128.041 96.8265 128.603 96.5264 129.215 96.4048C129.826 96.2832 130.461 96.3456 131.037 96.5841C131.613 96.8226 132.106 97.2265 132.452 97.7448C132.799 98.263 132.984 98.8723 132.984 99.4955C132.983 100.331 132.65 101.132 132.059 101.723C131.468 102.314 130.666 102.646 129.83 102.647V102.647ZM129.83 97.0445C129.345 97.0445 128.871 97.1883 128.467 97.4576C128.064 97.7269 127.749 98.1097 127.564 98.5576C127.378 99.0054 127.33 99.4983 127.424 99.9737C127.519 100.449 127.752 100.886 128.095 101.229C128.439 101.571 128.876 101.805 129.351 101.899C129.827 101.994 130.32 101.946 130.769 101.76C131.217 101.574 131.6 101.26 131.869 100.857C132.139 100.454 132.283 99.9803 132.283 99.4955C132.282 98.8457 132.023 98.2227 131.564 97.7632C131.104 97.3037 130.48 97.0453 129.83 97.0445Z" fill="white"/>
<path d="M132.633 108.599H127.027C126.702 108.599 126.39 108.47 126.16 108.24C125.93 108.01 125.801 107.699 125.8 107.374C125.8 106.306 126.225 105.282 126.981 104.527C127.736 103.771 128.761 103.347 129.83 103.347C130.899 103.347 131.924 103.771 132.679 104.527C133.435 105.282 133.86 106.306 133.86 107.374C133.859 107.699 133.73 108.01 133.5 108.24C133.27 108.47 132.958 108.599 132.633 108.599ZM129.83 104.047C128.947 104.048 128.101 104.399 127.477 105.023C126.853 105.646 126.502 106.492 126.501 107.374C126.501 107.513 126.557 107.647 126.655 107.745C126.754 107.844 126.887 107.899 127.027 107.899H132.633C132.773 107.899 132.906 107.844 133.005 107.745C133.103 107.647 133.159 107.513 133.159 107.374C133.158 106.492 132.807 105.646 132.183 105.023C131.559 104.399 130.713 104.048 129.83 104.047V104.047Z" fill="white"/>
<path d="M28.3612 164.989H32.6572L34.7008 148.432L28.3605 148.432L28.3612 164.989Z" fill="#FFB8B8"/>
<path d="M40.9423 168.975L27.4407 168.976L27.4405 163.763L35.7256 163.763C37.1091 163.763 38.4359 164.312 39.4143 165.289C40.3926 166.267 40.9423 167.593 40.9423 168.975V168.975L40.9423 168.975Z" fill="#2F2E41"/>
<path d="M12.2423 164.989H16.5383L18.5819 148.432L12.2416 148.432L12.2423 164.989Z" fill="#FFB8B8"/>
<path d="M24.8234 168.975L11.3218 168.976L11.3216 163.763L19.6067 163.763C20.9902 163.763 22.317 164.312 23.2954 165.289C24.2737 166.267 24.8234 167.593 24.8234 168.975V168.975L24.8234 168.975Z" fill="#2F2E41"/>
<path d="M12.7669 115.675C13.2298 115.378 13.6217 114.982 13.9151 114.517C14.2086 114.052 14.3963 113.528 14.4652 112.982C14.5341 112.437 14.4825 111.883 14.3139 111.359C14.1453 110.836 13.8639 110.356 13.4896 109.953L16.3183 69.8403L8.17016 70.6299L7.94636 109.912C7.31042 110.585 6.94375 111.468 6.91584 112.394C6.88793 113.319 7.20071 114.223 7.79492 114.933C8.38912 115.643 9.22347 116.111 10.1398 116.248C11.0562 116.385 11.991 116.181 12.767 115.675H12.7669Z" fill="#FFB8B8"/>
<path d="M28.4892 156.65C28.1038 156.649 27.732 156.507 27.4437 156.251C27.1554 155.996 26.9704 155.644 26.9233 155.261L24.4262 134.392C24.3911 134.098 24.2507 133.827 24.031 133.628C23.8114 133.43 23.5272 133.317 23.2311 133.312C22.935 133.306 22.6469 133.408 22.42 133.598C22.1931 133.789 22.0429 134.055 21.9969 134.347L18.8513 154.329C18.7943 154.701 18.6057 155.039 18.3198 155.284C18.0339 155.528 17.6697 155.661 17.2936 155.66H12.1951C11.987 155.66 11.781 155.619 11.5889 155.539C11.3968 155.459 11.2225 155.342 11.0759 155.194C10.9293 155.046 10.8134 154.871 10.7349 154.679C10.6563 154.486 10.6167 154.28 10.6182 154.072L13.0516 109.766C13.0525 109.389 13.1895 109.025 13.4376 108.741C13.6857 108.456 14.0281 108.271 14.4019 108.219L33.3218 105.474C33.5467 105.442 33.7758 105.458 33.9937 105.522C34.2116 105.586 34.4131 105.697 34.5843 105.846C34.7556 105.995 34.8925 106.179 34.9859 106.386C35.0793 106.593 35.1268 106.818 35.1252 107.045L34.7952 154.86C34.7924 155.263 34.6352 155.65 34.3558 155.94C34.0764 156.231 33.6962 156.404 33.2934 156.423L28.5641 156.648C28.539 156.649 28.5141 156.65 28.4892 156.65Z" fill="#2F2E41"/>
<path d="M18.6803 111.44C16.8604 111.433 15.0555 111.112 13.345 110.491C13.0551 110.384 12.8032 110.194 12.6213 109.945C12.4393 109.695 12.3353 109.397 12.3225 109.089C12.1593 105.469 11.2044 86.8388 8.42438 75.4747C7.88404 73.2455 8.01619 70.9063 8.80418 68.7519C9.59217 66.5976 11.0007 64.7246 12.8523 63.3689C13.0019 63.2616 13.1543 63.1561 13.3097 63.0526C14.9175 61.9831 16.7725 61.3424 18.6982 61.1916C20.6238 61.0408 22.556 61.3848 24.311 62.191C26.124 63.0016 27.6993 64.2623 28.887 65.8532C30.0747 67.4441 30.8352 69.3122 31.0962 71.2798L35.6296 104.912C35.6587 105.122 35.6448 105.336 35.5888 105.541C35.5327 105.745 35.4356 105.937 35.3033 106.103C35.174 106.268 35.0125 106.405 34.8285 106.505C34.6446 106.606 34.4421 106.668 34.2334 106.689C32.6625 106.845 29.4045 107.453 25.2348 109.768C23.2297 110.878 20.9725 111.454 18.6803 111.44V111.44Z" fill="#3F3D56"/>
<path d="M13.138 83.5618L5.6775 81.5406C5.27413 81.4308 4.93081 81.1656 4.72285 80.8032C4.5149 80.4408 4.45929 80.0108 4.56824 79.6075L7.19091 69.9416C7.47181 68.9063 8.12639 68.0115 9.02844 67.4298C9.93048 66.8481 11.0161 66.6208 12.0759 66.7916C13.1358 66.9624 14.0948 67.5193 14.7681 68.3549C15.4414 69.1904 15.7813 70.2455 15.7222 71.3166L15.1251 82.1279C15.1122 82.3623 15.047 82.5908 14.9343 82.7968C14.8217 83.0028 14.6643 83.1811 14.4739 83.3185C14.2834 83.456 14.0646 83.5492 13.8335 83.5912C13.6023 83.6333 13.3647 83.6233 13.138 83.5618V83.5618Z" fill="#3F3D56"/>
<path d="M21.4428 57.6244C26.196 57.6244 30.0493 53.774 30.0493 49.0243C30.0493 44.2747 26.196 40.4243 21.4428 40.4243C16.6896 40.4243 12.8364 44.2747 12.8364 49.0243C12.8364 53.774 16.6896 57.6244 21.4428 57.6244Z" fill="#FFB8B8"/>
<path d="M52.6307 65.9206C52.5877 66.1096 52.5596 66.3016 52.5468 66.4949L37.4941 75.1723L33.8353 73.0676L29.9348 78.1701L37.762 83.7446L54.9349 70.2069C55.6353 70.4659 56.398 70.5057 57.1216 70.321C57.8452 70.1363 58.4954 69.7358 58.9856 69.1729C59.4759 68.6099 59.7831 67.9111 59.8662 67.1695C59.9494 66.4279 59.8046 65.6785 59.4512 65.0211C59.0978 64.3637 58.5525 63.8294 57.8878 63.4892C57.223 63.149 56.4704 63.0191 55.73 63.1168C54.9896 63.2144 54.2965 63.535 53.7429 64.0358C53.1892 64.5367 52.8013 65.1941 52.6307 65.9207V65.9206Z" fill="#FFB8B8"/>
<path d="M36.2466 75.591L29.7625 79.7958C29.4115 80.0228 28.9848 80.1015 28.5759 80.0145C28.167 79.9275 27.8093 79.682 27.5813 79.3318L22.1254 70.931C21.541 70.0311 21.3106 68.9469 21.4788 67.8874C21.647 66.8279 22.2018 65.8681 23.0363 65.1932C23.8707 64.5182 24.9257 64.1759 25.9978 64.2322C27.0698 64.2884 28.0831 64.7394 28.8422 65.498L36.5033 73.1552C36.6695 73.3212 36.7964 73.5222 36.8748 73.7435C36.9532 73.9648 36.9811 74.2008 36.9565 74.4343C36.9319 74.6678 36.8553 74.8928 36.7325 75.093C36.6097 75.2931 36.4437 75.4633 36.2466 75.591Z" fill="#3F3D56"/>
<path d="M15.3525 55.8283C16.9581 57.5373 19.9398 56.6198 20.149 54.2851C20.1654 54.1038 20.1642 53.9214 20.1455 53.7404C20.0374 52.7062 19.4395 51.7673 19.5828 50.6753C19.6152 50.4036 19.7165 50.1446 19.8771 49.9229C21.1566 48.2109 24.16 50.6886 25.3674 49.1388C26.1079 48.1885 25.2375 46.6923 25.8057 45.6301C26.5556 44.2283 28.7768 44.9198 30.1697 44.1521C31.7194 43.2979 31.6267 40.9219 30.6066 39.4767C29.3624 37.7142 27.1811 36.7737 25.0269 36.6381C22.8727 36.5026 20.7333 37.0845 18.7222 37.8677C16.4371 38.7575 14.1711 39.9873 12.7649 41.9951C11.0549 44.4367 10.8903 47.7193 11.7455 50.5743C12.2658 52.3111 14.0414 54.4327 15.3525 55.8283Z" fill="#2F2E41"/>
<path d="M49.4079 169H0.350426C0.257491 169 0.168363 168.963 0.102648 168.897C0.0369332 168.832 1.52588e-05 168.743 1.52588e-05 168.65C1.52588e-05 168.557 0.0369332 168.468 0.102648 168.402C0.168363 168.337 0.257491 168.3 0.350426 168.3H49.4079C49.5009 168.3 49.59 168.337 49.6557 168.402C49.7214 168.468 49.7583 168.557 49.7583 168.65C49.7583 168.743 49.7214 168.832 49.6557 168.897C49.59 168.963 49.5009 169 49.4079 169Z" fill="#3F3D56"/>
</g>
<defs>
<clipPath id="clip0">
<rect width="320" height="169" fill="white"/>
</clipPath>
</defs>
</svg>
